<svg version="1.1" id="Layer_1" xmlns="http://www.w3.org/2000/svg" xmlns:xlink="http://www.w3.org/1999/xlink" x="0px" y="0px"
	 width="100%" viewBox="0 0 400 496" enable-background="new 0 0 400 496" xml:space="preserve">
<path fill="#000000" opacity="1.000000" stroke="none" 
	d="
M266.395294,119.483200 
	C309.371765,141.875763 336.574646,176.134995 345.706329,223.533768 
	C353.177582,262.313812 345.997253,298.752747 323.990967,331.769470 
	C297.849884,370.989716 260.634399,392.604034 214.104126,396.910950 
	C176.450867,400.396301 141.860382,390.643707 111.445564,367.444458 
	C80.322395,343.704895 61.535812,312.409760 55.468513,273.954926 
	C49.346317,235.152145 57.429276,199.123734 80.251770,166.885544 
	C102.925545,134.857407 133.761185,114.935478 172.204361,107.308304 
	C204.714157,100.858322 236.097733,104.972664 266.395294,119.483200 
M62.713528,283.788605 
	C71.003998,316.434296 88.415123,343.312103 115.172684,363.587982 
	C138.838776,381.521332 165.797333,391.226746 195.741760,392.073578 
	C239.193604,393.302399 276.157990,378.360535 305.425140,346.369965 
	C338.620605,310.085510 350.052704,267.142487 339.157074,219.179306 
	C329.125793,175.020767 302.453400,143.180481 261.989075,123.507141 
	C227.857162,106.912582 192.218170,105.419228 156.122818,116.990746 
	C135.487991,123.605896 117.868690,135.072067 102.096367,149.983063 
	C84.939087,166.203384 73.313812,185.616135 65.850647,207.691422 
	C57.492733,232.413284 57.126389,257.600983 62.713528,283.788605 
z"/>
<path fill="#000000" opacity="1.000000" stroke="none" 
	d="
M175.774323,166.984879 
	C178.562393,164.160172 181.932770,164.324951 184.989792,164.310013 
	C197.964767,164.246567 210.942230,164.412598 223.916595,164.627029 
	C231.047943,164.744873 232.513519,165.956146 232.670807,173.078140 
	C232.975922,186.893829 233.050385,200.720490 232.879837,214.538406 
	C232.791016,221.733994 231.394165,223.227676 224.419647,223.350464 
	C210.160233,223.601517 195.892944,223.388733 181.628937,223.402939 
	C176.612885,223.407928 174.518921,221.047958 174.570343,215.980072 
	C174.722061,201.029312 174.604477,186.075912 174.614304,171.123535 
	C174.615173,169.800659 174.611206,168.438477 175.774323,166.984879 
M177.485352,218.312943 
	C178.476288,220.702301 180.598648,220.462692 182.583038,220.472275 
	C196.566742,220.539856 210.551010,220.541641 224.534012,220.676697 
	C229.214386,220.721893 230.808685,218.171082 230.476929,214.037430 
	C229.996231,208.047623 230.272125,202.073700 230.303421,196.084961 
	C230.341644,188.771957 230.123016,181.464447 230.429108,174.143082 
	C230.586838,170.370361 229.359619,167.307465 224.479294,167.346146 
	C210.328918,167.458313 196.176926,167.388718 182.025681,167.352295 
	C178.778000,167.343933 176.990448,168.738098 177.009155,172.098999 
	C177.093445,187.242874 177.182602,202.386703 177.485352,218.312943 
z"/>
<path fill="#000000" opacity="1.000000" stroke="none" 
	d="
M217.497345,161.140045 
	C215.654175,157.690796 217.892807,155.536591 219.569611,153.070435 
	C216.580490,149.828064 213.452545,146.563461 218.603348,142.290421 
	C215.517822,142.029266 212.164703,140.804260 211.134918,143.310654 
	C209.671967,146.871399 209.441696,151.042038 211.467712,154.813232 
	C212.008408,155.819687 212.887787,156.723618 213.141541,157.786804 
	C213.555038,159.519363 212.939194,161.084290 211.367416,162.113602 
	C209.761642,163.165161 208.172806,162.989456 206.760696,161.788071 
	C205.406372,160.635849 204.285019,158.858521 205.411301,157.410660 
	C208.624634,153.279892 207.801407,148.580963 207.795029,144.013687 
	C207.790329,140.656036 209.169373,139.051819 212.516190,139.098816 
	C216.844879,139.159607 221.191452,138.974106 225.496780,139.316315 
	C228.463760,139.552170 230.879822,139.512756 233.143738,137.049103 
	C235.079514,134.942551 237.708725,135.174057 239.758224,137.344727 
	C241.663788,139.362961 241.564072,141.646240 239.774506,143.633820 
	C237.774963,145.854645 235.116226,146.067337 233.186447,143.924240 
	C230.532288,140.976730 227.776520,141.305969 224.178528,142.670273 
	C225.608521,145.842743 226.040375,148.974243 223.106583,151.685898 
	C221.689926,152.995300 222.580811,154.390320 223.604721,155.639984 
	C225.202698,157.590271 225.282791,159.660156 223.499283,161.478973 
	C221.669006,163.345444 219.656586,163.148788 217.497345,161.140045 
z"/>
<path fill="#000000" opacity="1.000000" stroke="none" 
	d="
M168.922699,204.955444 
	C167.637589,204.617172 166.619202,204.401657 165.831833,203.854004 
	C164.301208,202.789322 162.947189,200.175507 160.928024,202.286148 
	C159.421982,203.860443 159.817078,206.339264 160.978516,208.340256 
	C161.380997,209.033676 161.996124,209.603683 162.614777,210.351791 
	C165.680038,209.648651 168.637482,205.365479 171.742706,209.819351 
	C172.887466,211.461304 172.786667,213.401230 171.376129,214.880753 
	C168.428558,217.972534 165.997665,215.363113 163.595276,213.896896 
	C157.278793,218.145859 157.266037,218.155151 152.532166,211.653198 
	C151.962875,210.871277 151.211349,210.742401 150.399796,210.620529 
	C147.724808,210.218765 146.253311,208.583435 145.985306,205.988419 
	C145.801010,204.204132 146.730957,202.735733 148.183151,201.770554 
	C150.565369,200.187241 152.596008,201.350250 154.516129,202.837006 
	C155.153595,203.330597 155.685501,204.038696 156.650803,203.794357 
	C157.846054,200.828094 165.919418,196.261688 169.084824,196.753098 
	C170.966370,197.045181 172.083466,198.197067 172.383041,199.992981 
	C172.796860,202.473724 171.734207,204.165817 168.922699,204.955444 
z"/>
<path fill="#000000" opacity="1.000000" stroke="none" 
	d="
M313.541382,287.575745 
	C315.989532,288.420197 318.183990,291.214935 320.344208,288.147491 
	C322.010498,285.781372 320.677795,277.739105 318.581146,275.964142 
	C316.641479,274.322113 314.400482,273.271637 311.468933,273.029602 
	C311.023987,273.047729 310.712097,273.600037 310.541504,274.280853 
	C310.137726,275.892181 309.288483,276.680054 307.695068,275.629333 
	C305.823669,274.395355 306.730957,273.107147 307.783295,271.906494 
	C312.888855,266.081390 320.397675,267.219299 324.338928,274.404205 
	C327.212433,279.642548 325.864502,285.489166 326.687408,291.023499 
	C326.850464,292.120117 325.599915,292.569214 324.727325,293.028351 
	C320.701660,295.146484 311.953979,294.052002 308.684906,290.870575 
	C306.151367,288.404938 304.506470,285.332886 306.352448,281.917297 
	C308.614105,277.732483 312.579773,276.583130 317.563629,276.776764 
	C315.945099,280.669250 305.747223,280.612457 313.541382,287.575745 
z"/>
<path fill="#000000" opacity="1.000000" stroke="none" 
	d="
M238.805939,283.867798 
	C236.101242,289.440979 232.539215,294.199585 226.259644,294.069519 
	C220.366455,293.947449 214.234711,285.568512 213.668762,278.481445 
	C213.039764,270.604858 217.174133,263.215759 224.222305,259.619904 
	C227.752228,257.819031 233.209839,260.596252 236.257416,265.843231 
	C233.893051,268.641083 231.647064,268.578247 228.654388,266.333618 
	C222.407944,261.648590 220.522202,262.509338 218.870407,270.197388 
	C217.205429,277.946686 220.407013,285.136932 226.913330,288.260559 
	C231.712494,290.564575 233.087860,289.809265 233.679413,284.561432 
	C233.788040,283.597717 233.947571,282.639740 234.080292,281.702515 
	C236.318069,281.132019 237.894836,281.516296 238.805939,283.867798 
z"/>
<path fill="#000000" opacity="1.000000" stroke="none" 
	d="
M103.004272,291.164062 
	C95.638397,295.928772 88.638153,292.942535 84.707062,283.708130 
	C81.727203,276.708221 83.841469,267.488525 89.504265,262.789276 
	C96.094162,257.320618 100.589851,258.032776 105.928474,265.549286 
	C103.802795,268.578278 101.683563,268.669312 98.588890,266.404572 
	C92.090942,261.649170 89.888382,262.681793 88.528076,270.550964 
	C87.190331,278.289612 90.339844,285.226929 96.562065,288.247253 
	C101.431374,290.610840 103.011436,289.713928 103.665756,284.221466 
	C103.760735,283.424255 103.880730,282.630005 103.986267,281.855499 
	C108.842316,282.110901 109.509514,283.051392 107.228249,286.478210 
	C106.140106,288.112823 104.624573,289.462921 103.004272,291.164062 
z"/>
<path fill="#000000" opacity="1.000000" stroke="none" 
	d="
M127.476196,293.390686 
	C124.452957,294.019043 121.865005,294.678253 119.145836,292.797180 
	C115.746559,290.445587 112.352722,288.196960 113.341614,283.363922 
	C114.162170,279.353638 118.393517,276.969177 123.934471,277.092407 
	C124.156418,278.909271 122.420578,278.957306 121.526878,279.684753 
	C119.708374,281.164978 117.258438,282.585449 118.779854,285.290680 
	C120.424576,288.215240 123.440887,289.487244 126.792290,289.415558 
	C128.177383,289.385925 128.419098,288.037476 128.638870,286.828339 
	C129.974075,279.482361 128.369843,276.427307 121.518272,273.480225 
	C120.759850,273.154022 119.951241,272.944458 118.978523,272.617889 
	C117.443680,273.063538 117.544357,278.707947 113.968788,274.064545 
	C116.451073,270.692505 119.374336,267.679901 123.919403,268.014709 
	C128.156113,268.326782 132.632690,273.842926 133.254974,278.628082 
	C133.618790,281.425720 133.854431,284.240295 134.133011,287.048706 
	C134.665482,292.416229 133.628067,293.469574 127.476196,293.390686 
z"/>
<path fill="#000000" opacity="1.000000" stroke="none" 
	d="
M276.900269,273.250061 
	C274.964752,272.483673 273.142883,271.767700 272.589600,274.205261 
	C272.147339,276.153687 273.972595,276.712830 275.374573,277.107330 
	C277.930359,277.826569 280.613586,278.125519 283.128448,278.950867 
	C288.158173,280.601501 289.348267,284.988037 286.071045,289.187744 
	C281.682251,294.811920 275.402832,295.560577 270.647369,291.004333 
	C269.695465,290.092285 268.459656,289.095093 269.382019,287.621552 
	C270.336060,286.097351 271.822510,285.318695 273.671326,286.113220 
	C275.804077,287.029785 277.884796,288.067566 280.017822,288.983582 
	C281.458099,289.602081 282.655975,289.357330 283.157043,287.668518 
	C283.603851,286.162567 283.144104,284.909637 281.623718,284.476746 
	C279.553528,283.887329 277.376373,283.675995 275.302338,283.097321 
	C272.029999,282.184235 268.706177,281.147614 268.708649,276.811646 
	C268.711456,271.915710 272.451813,269.866150 276.071899,268.303253 
	C279.603699,266.778473 282.388153,269.310730 284.923553,271.483490 
	C285.755188,272.196198 285.741699,273.285400 284.859985,274.123810 
	C283.854126,275.080231 282.654205,275.816101 281.257629,275.326843 
	C279.857513,274.836334 278.563202,274.043854 276.900269,273.250061 
z"/>
<path fill="#000000" opacity="1.000000" stroke="none" 
	d="
M180.969696,282.383728 
	C177.729858,281.155334 175.348633,279.362640 176.172958,276.020691 
	C177.262390,271.604095 180.719223,268.921173 184.922501,268.024933 
	C187.958389,267.377594 190.610626,269.448029 192.655777,271.752594 
	C193.433289,272.628754 193.033249,273.626160 192.149704,274.344208 
	C190.897308,275.362061 189.538177,275.765991 187.999176,274.992920 
	C186.371826,274.175446 184.792175,273.230865 183.097778,272.590088 
	C181.934235,272.150085 180.719193,272.531342 180.200745,273.828247 
	C179.649963,275.205994 180.496017,276.225800 181.634552,276.570404 
	C184.478363,277.431183 187.418701,277.967712 190.280502,278.775421 
	C195.581436,280.271515 197.033875,284.796936 193.681366,289.157166 
	C189.327469,294.819702 183.188568,295.550659 178.258179,290.980713 
	C177.289032,290.082428 176.018066,289.124725 176.966583,287.643707 
	C177.923355,286.149811 179.392654,285.345062 181.243317,286.164948 
	C183.209122,287.035889 185.120361,288.032806 187.100922,288.866638 
	C188.575073,289.487244 190.130264,289.759918 190.680481,287.669983 
	C191.148087,285.893829 190.187134,284.747711 188.566071,284.281616 
	C186.187180,283.597626 183.760269,283.080750 180.969696,282.383728 
z"/>
<path fill="#000000" opacity="1.000000" stroke="none" 
	d="
M158.622192,293.426239 
	C146.943665,286.641235 150.126999,272.873444 158.885971,268.684021 
	C160.673599,267.828979 162.240845,267.633575 164.092270,268.451324 
	C169.145996,270.683502 172.356918,275.717743 172.302643,281.602692 
	C172.252960,286.990784 168.718872,292.018738 163.731247,293.956299 
	C162.025787,294.618805 160.488098,294.358459 158.622192,293.426239 
M161.294952,288.097351 
	C165.356857,290.272339 167.290787,288.874207 168.007782,284.480469 
	C168.800461,279.622925 165.987915,275.117859 160.754562,273.048798 
	C157.814575,271.886414 156.381699,272.981110 155.580063,275.652832 
	C154.088135,280.625183 155.695908,284.469818 161.294952,288.097351 
z"/>
<path fill="#000000" opacity="1.000000" stroke="none" 
	d="
M264.144470,277.604187 
	C264.403534,281.845825 264.724213,285.619720 262.237518,289.042450 
	C257.393738,295.709534 251.295380,295.949493 246.233337,289.510254 
	C242.550613,284.825592 242.665817,276.921509 246.483551,272.345337 
	C252.502228,265.130890 259.858215,267.155945 264.144470,277.604187 
M256.450500,275.040222 
	C254.030029,274.041565 251.813370,270.920044 248.947479,273.535309 
	C246.152252,276.086121 246.966248,282.651062 250.331787,285.762604 
	C252.623795,287.881622 255.383560,290.234131 258.633575,288.681061 
	C261.670624,287.229736 261.185120,280.343597 258.159698,276.456848 
	C257.859894,276.071686 257.421539,275.794312 256.450500,275.040222 
z"/>
<path fill="#000000" opacity="1.000000" stroke="none" 
	d="
M302.907104,267.735718 
	C306.505005,269.710876 304.798676,271.132233 302.520325,271.400269 
	C299.728180,271.728760 299.284149,273.190338 299.307312,275.409546 
	C299.350769,279.570862 298.764130,283.855377 299.566650,287.862915 
	C300.594025,292.993164 297.772766,293.376282 294.015961,293.885803 
	C293.202698,288.505585 294.001801,283.383942 294.149658,278.279663 
	C294.263550,274.347748 294.171204,270.866119 288.312042,270.337952 
	C294.421417,268.735565 291.927399,259.529480 298.978821,259.303375 
	C301.817780,261.717682 296.029083,267.140961 302.907104,267.735718 
z"/>
<path fill="#000000" opacity="1.000000" stroke="none" 
	d="
M249.957870,187.644669 
	C255.008652,188.286972 257.255249,186.670105 256.730896,181.654007 
	C256.212952,176.699310 257.903442,171.441223 253.626114,167.136475 
	C252.045456,165.545654 253.067993,163.307922 254.786255,161.891907 
	C256.662811,160.345428 258.750610,160.203476 260.752197,161.636307 
	C262.576935,162.942490 263.646790,165.288727 262.328400,166.843277 
	C257.627014,172.386749 259.576294,178.838959 259.387848,184.935501 
	C259.270538,188.730911 258.111145,190.314957 254.182281,190.294418 
	C249.322250,190.269012 244.274445,189.200729 239.864243,192.807892 
	C238.272827,194.109512 236.367218,192.760544 235.306824,191.029205 
	C234.238602,189.285095 234.288177,187.511978 235.708115,185.982437 
	C237.146362,184.433182 239.272095,184.081390 240.677505,185.320251 
	C243.349716,187.675812 246.337921,187.772018 249.957870,187.644669 
z"/>
<path fill="#000000" opacity="1.000000" stroke="none" 
	d="
M238.846100,319.576294 
	C241.193268,317.174957 242.335098,318.177582 243.289719,320.570129 
	C244.539230,323.701660 244.527298,327.376251 247.158752,330.216370 
	C251.051529,326.882172 249.301117,320.317719 255.093948,317.526123 
	C256.133759,323.969757 257.117584,329.783325 257.974823,335.615479 
	C258.148285,336.795685 257.174500,337.375397 256.053711,337.407440 
	C254.531769,337.450897 254.164566,336.287659 253.898590,335.122742 
	C253.278519,332.406891 254.336319,329.435455 252.539902,326.597351 
	C250.757004,329.238220 250.012894,332.089264 249.306259,334.930298 
	C248.936325,336.417603 248.144211,337.278320 246.650269,337.482208 
	C244.741348,337.742737 244.577026,336.158722 244.143173,334.977020 
	C243.235794,332.505402 242.924255,329.803253 241.164215,327.381134 
	C238.922684,330.318573 242.050766,335.109283 237.293503,337.505585 
	C237.022171,331.245026 239.378937,325.679688 238.846100,319.576294 
z"/>
<path fill="#000000" opacity="1.000000" stroke="none" 
	d="
M159.188782,173.351837 
	C160.852600,176.827652 163.000229,175.860046 164.977890,174.353165 
	C167.257492,172.616241 169.461945,171.954132 171.571243,174.337128 
	C173.101959,176.066452 172.983063,178.127731 171.460861,179.780853 
	C169.308929,182.117844 166.927658,181.521423 164.877457,179.591431 
	C162.639648,177.484863 159.662842,179.005981 157.183716,177.752502 
	C155.638290,174.996246 157.293289,171.891373 156.381989,168.904922 
	C155.255875,167.961990 154.790192,169.459229 154.014648,169.774399 
	C151.214188,170.912460 149.134857,170.084366 147.670837,167.581131 
	C146.384003,165.380829 146.844559,163.314606 148.756607,161.785645 
	C150.811188,160.142715 152.927338,160.410675 155.177780,161.836761 
	C159.481705,164.564133 158.964722,168.843231 159.188782,173.351837 
z"/>
<path fill="#000000" opacity="1.000000" stroke="none" 
	d="
M260.789368,218.711578 
	C261.675079,221.733932 261.321106,224.057404 258.634430,225.458878 
	C256.090363,226.785965 254.173264,225.645462 252.493408,223.744095 
	C252.274719,223.496582 251.998856,223.095215 251.758087,223.101395 
	C245.441788,223.263153 244.989410,218.611465 244.882401,214.305527 
	C242.422363,213.329803 241.913635,215.440933 240.608643,215.937820 
	C238.687241,216.669434 236.983170,216.538803 235.681961,214.842972 
	C234.294220,213.034363 234.300766,211.084778 235.746902,209.346970 
	C237.049118,207.782104 238.879013,207.150024 240.638016,208.384308 
	C243.869720,210.651993 248.620132,211.269073 248.270859,217.246002 
	C248.069366,220.693710 250.828033,219.841766 252.735107,218.108017 
	C255.455093,215.635239 258.053680,215.753296 260.789368,218.711578 
z"/>
<path fill="#000000" opacity="1.000000" stroke="none" 
	d="
M186.476578,141.871796 
	C187.422577,147.262695 184.982361,152.823166 189.391266,157.356339 
	C190.835449,158.841232 189.325455,160.824692 187.725388,161.972534 
	C186.213196,163.057343 184.565323,163.109146 183.112366,161.888382 
	C181.311111,160.374969 180.904221,158.013580 182.283676,156.515640 
	C185.322189,153.216156 184.632935,149.398392 184.579254,145.658112 
	C184.526840,142.005600 181.078888,140.268326 178.013199,142.211288 
	C177.466721,142.557648 177.096420,143.170746 176.604019,143.615570 
	C174.080017,145.895615 171.417038,145.995850 169.110977,143.516876 
	C167.285416,141.554413 167.363892,139.143494 169.299561,137.227173 
	C171.551941,134.997314 174.227203,134.952667 176.346420,137.267014 
	C177.923584,138.989426 179.604340,139.167557 181.677673,139.191574 
	C183.515930,139.212875 185.908310,138.612961 186.476578,141.871796 
z"/>
<path fill="#000000" opacity="1.000000" stroke="none" 
	d="
M142.001617,260.248138 
	C143.419556,259.609955 144.471985,259.166199 146.082092,259.759155 
	C145.069382,266.662170 145.325272,273.591278 145.319321,280.515686 
	C145.317322,282.839661 145.292572,285.182343 145.559036,287.483978 
	C146.154373,292.626251 146.208527,292.639893 140.610535,293.553345 
	C139.777176,293.049622 139.659714,292.166046 139.766586,291.389679 
	C140.998550,282.439392 140.405060,273.503479 139.691055,264.560577 
	C139.557907,262.893005 139.603592,261.158508 142.001617,260.248138 
z"/>
<path fill="#000000" opacity="1.000000" stroke="none" 
	d="
M149.036133,185.148804 
	C148.237869,184.223633 147.598007,183.676331 147.077988,183.032242 
	C145.168350,180.666946 145.585800,178.355621 147.531784,176.303482 
	C149.306366,174.432083 151.416718,174.518051 153.393250,175.981949 
	C155.820999,177.780075 155.843277,180.176697 154.598709,182.653168 
	C154.099762,183.645966 153.285614,184.480362 152.044754,186.157516 
	C157.117325,186.666702 161.405991,187.463303 165.669815,185.440613 
	C168.020523,184.325455 170.288132,184.184479 171.811935,186.638626 
	C172.990295,188.536407 172.676666,190.583618 170.998810,192.089111 
	C168.728851,194.125839 166.651245,193.081207 164.904266,191.215103 
	C161.891388,187.996735 158.015182,189.416107 154.501343,189.304245 
	C151.651215,189.213531 149.577942,188.728333 149.036133,185.148804 
z"/>
<path fill="#000000" opacity="1.000000" stroke="none" 
	d="
M246.473267,198.149246 
	C249.610550,194.999496 253.533493,193.873444 257.138153,192.281784 
	C258.824829,191.537018 260.655304,192.887177 261.648590,194.650528 
	C262.777893,196.655472 262.304169,198.520508 260.958252,200.209412 
	C259.816223,201.642487 257.973541,202.681564 256.604309,201.461563 
	C250.381668,195.917023 246.341904,202.600220 241.523895,204.121033 
	C238.728317,205.003464 236.687790,205.352524 235.041031,202.834152 
	C233.916397,201.114288 234.318817,199.217636 235.786270,197.817627 
	C237.450958,196.229370 239.403976,196.311859 241.267593,197.546387 
	C242.838928,198.587265 244.149536,200.755157 246.473267,198.149246 
z"/>
<path fill="#000000" opacity="1.000000" stroke="none" 
	d="
M192.322052,250.741333 
	C189.004715,251.776276 186.610687,251.134384 185.524551,248.025101 
	C184.801071,245.953903 185.435684,244.058838 187.216812,242.702545 
	C189.328125,241.094833 191.170837,241.558899 195.645416,245.001068 
	C195.281250,240.369339 197.692596,236.106369 194.101257,232.073898 
	C192.529572,230.309143 192.579041,228.043793 194.716736,226.351410 
	C196.345840,225.061661 198.097733,224.861755 199.740280,226.204529 
	C201.746979,227.845032 201.905228,230.110107 200.502472,232.001083 
	C199.027054,233.989960 198.031860,235.944733 198.393494,238.402924 
	C199.178589,243.739273 197.984573,248.102310 192.322052,250.741333 
z"/>
<path fill="#000000" opacity="1.000000" stroke="none" 
	d="
M234.770294,243.988770 
	C232.572769,245.567413 230.539215,245.553436 228.981445,243.981110 
	C227.080795,242.062759 225.033722,241.054077 222.344070,241.295197 
	C221.872971,241.337433 221.333267,241.182098 220.901215,240.966080 
	C220.150223,240.590637 216.583817,228.549088 216.992218,227.759262 
	C217.919693,225.965469 219.388580,224.804276 221.429077,225.404510 
	C223.717087,226.077576 225.143600,227.708694 224.662888,230.277786 
	C224.488663,231.208817 223.882278,232.112900 223.300980,232.902588 
	C222.107147,234.524323 221.409058,236.406723 222.875626,237.898636 
	C224.646744,239.700378 226.471375,238.569809 228.105209,237.121811 
	C230.221222,235.246521 232.783356,234.857742 234.929611,236.664795 
	C237.382812,238.730255 236.956970,241.344070 234.770294,243.988770 
z"/>
<path fill="#000000" opacity="1.000000" stroke="none" 
	d="
M182.301193,227.190628 
	C184.564957,224.989929 186.748703,224.828400 188.628143,226.941681 
	C190.314957,228.838318 189.334732,230.731735 188.473328,232.896255 
	C186.716629,237.310516 184.415131,240.152740 179.134583,239.320236 
	C177.384979,239.044373 176.291229,240.879425 174.836670,241.614639 
	C172.570251,242.760208 170.190506,242.846176 168.574905,240.567963 
	C167.078156,238.457336 167.157486,236.129135 169.078323,234.208435 
	C171.105057,232.181808 173.270126,232.668228 175.395218,234.156860 
	C179.798492,237.241425 179.801010,237.237823 184.373154,235.395477 
	C183.716187,232.749756 180.114105,230.820450 182.301193,227.190628 
z"/>
<path fill="#000000" opacity="1.000000" stroke="none" 
	d="
M212.900330,231.488785 
	C209.654694,235.664398 208.947098,239.382126 212.743011,243.275833 
	C214.789185,245.374741 214.682068,247.837219 212.594070,249.921570 
	C210.857834,251.654724 208.709854,251.836823 206.690155,250.438507 
	C204.192108,248.709045 203.871063,246.030136 205.498764,243.878494 
	C208.668304,239.688675 208.709167,235.825958 205.697449,231.662262 
	C204.462357,229.954773 204.746017,228.198517 206.265945,226.721771 
	C207.550949,225.473251 209.072128,224.856659 210.795319,225.669296 
	C213.140808,226.775421 213.574097,228.773682 212.900330,231.488785 
z"/>
<path fill="#000000" opacity="1.000000" stroke="none" 
	d="
M194.134064,155.998108 
	C196.867661,151.799957 196.836380,147.887314 194.184937,144.151001 
	C192.409790,141.649521 191.959778,139.247314 194.281433,137.024750 
	C196.256653,135.133865 198.584839,135.281006 200.537170,137.125671 
	C203.172470,139.615662 202.341904,141.981003 200.228210,144.507126 
	C197.347153,147.950348 197.386200,151.731949 200.054779,155.324554 
	C201.533508,157.315338 201.810715,159.270416 200.367004,161.245987 
	C199.120102,162.952194 197.298950,163.294693 195.504135,162.209839 
	C193.194489,160.813782 192.407074,158.827347 194.134064,155.998108 
z"/>
<path fill="#000000" opacity="1.000000" stroke="none" 
	d="
M265.635956,317.988159 
	C274.141937,317.432007 278.001007,320.591797 277.308441,327.026581 
	C277.140076,328.591156 276.609528,329.942108 275.495575,330.984436 
	C272.306763,333.968201 266.854034,332.873810 264.527649,337.776520 
	C263.088867,331.915680 264.475586,326.441254 262.646210,321.235565 
	C262.104492,319.693970 263.740967,318.647156 265.635956,317.988159 
M267.329681,322.281433 
	C267.324463,323.926544 267.321381,325.571686 267.313385,327.216797 
	C267.304779,328.991730 267.531250,330.650726 269.856140,330.595093 
	C272.183838,330.539337 273.757111,329.296417 273.567200,326.930725 
	C273.292267,323.506531 272.105804,320.694885 267.329681,322.281433 
z"/>
<path fill="#000000" opacity="1.000000" stroke="none" 
	d="
M101.194916,318.483826 
	C104.418373,319.434113 102.112175,321.017517 101.511856,321.674500 
	C98.398293,325.081818 99.348381,328.292480 101.523201,331.591278 
	C101.888000,332.144653 102.299591,332.683014 102.564156,333.283539 
	C103.193123,334.711243 104.623657,336.325623 102.151367,337.378021 
	C100.131218,338.238037 99.549240,336.603882 98.971062,335.231201 
	C98.333374,333.717224 98.001213,332.041931 96.504776,331.045502 
	C92.628860,331.393646 96.622002,337.832367 91.665451,337.368958 
	C89.288940,330.254944 90.464241,319.807861 93.974220,318.126831 
	C95.448593,320.455688 93.419868,323.296997 94.944687,325.832794 
	C97.934418,324.068054 98.293701,320.388031 101.194916,318.483826 
z"/>
<path fill="#000000" opacity="1.000000" stroke="none" 
	d="
M156.319397,323.732239 
	C156.591187,330.576630 155.630310,332.506683 149.327194,333.078003 
	C145.987656,333.380707 147.100540,338.434784 143.018097,336.930511 
	C142.316620,331.791290 143.258240,326.298309 142.011414,320.948456 
	C141.567337,319.042877 143.775696,318.365387 145.380081,317.929749 
	C150.066757,316.657104 153.676544,318.492920 156.319397,323.732239 
M151.731033,322.962921 
	C150.038437,321.152710 147.972488,321.110321 145.223328,321.790955 
	C146.857864,323.481201 146.310730,325.429047 146.334213,327.309692 
	C146.357819,329.199005 146.873260,330.618073 149.094635,330.615692 
	C151.238083,330.613373 152.520142,329.545746 152.841904,327.411285 
	C153.044815,326.065216 152.884918,324.761444 151.731033,322.962921 
z"/>
<path fill="#000000" opacity="1.000000" stroke="none" 
	d="
M249.850159,181.712982 
	C246.835663,182.280304 245.347275,180.131927 243.290253,178.950775 
	C240.888321,180.576797 238.451950,183.116379 235.608978,179.829620 
	C233.985550,177.952759 233.968018,175.790955 235.738083,174.019592 
	C238.453308,171.302429 240.821686,172.984528 243.246368,175.222260 
	C246.098160,172.754700 249.486069,170.351547 252.458664,174.306412 
	C254.451523,176.957794 253.730957,180.019653 249.850159,181.712982 
z"/>
<path fill="#000000" opacity="1.000000" stroke="none" 
	d="
M118.342957,327.360535 
	C117.560516,330.278381 111.793228,328.406952 113.469208,333.039215 
	C114.815079,336.759125 118.338860,333.479675 120.484917,335.073120 
	C120.887375,337.176636 119.965675,338.093811 117.841141,338.040314 
	C116.030403,337.994690 114.211891,337.913696 112.407867,338.025970 
	C109.687592,338.195190 108.984543,337.004669 109.244270,334.409912 
	C109.573021,331.125580 109.651825,327.792572 109.530235,324.491913 
	C109.298180,318.192780 109.947403,317.467377 116.463234,317.780701 
	C117.437706,317.827515 118.406357,317.995453 119.376892,318.107269 
	C118.952911,321.625366 118.952911,321.625366 113.880829,321.217926 
	C113.104843,322.588684 113.115585,324.027679 113.498299,325.421875 
	C114.729378,327.411438 117.658432,323.761993 118.342957,327.360535 
z"/>
<path fill="#000000" opacity="1.000000" stroke="none" 
	d="
M129.226379,317.781067 
	C129.840912,317.710815 130.024323,317.658142 130.171371,317.709534 
	C132.129471,318.393494 135.872070,316.386292 135.839218,319.673523 
	C135.802429,323.354980 131.983521,320.099487 130.174423,321.372925 
	C129.249619,322.651337 129.138412,324.053894 129.740723,325.523193 
	C131.211746,326.935883 133.045700,324.796753 134.777817,326.428589 
	C135.285568,327.879059 134.494370,329.023132 132.760986,329.195709 
	C130.266800,329.444122 129.011353,330.536804 129.478592,333.055511 
	C130.000793,335.870636 132.082779,334.886536 133.838669,334.702759 
	C134.797134,334.602509 135.823715,334.246826 136.691391,335.030457 
	C136.091415,338.279144 136.091415,338.279144 125.750145,337.494446 
	C125.750145,331.966156 125.701073,326.357330 125.778442,320.750275 
	C125.803398,318.941406 127.327240,318.353882 129.226379,317.781067 
z"/>
<path fill="#000000" opacity="1.000000" stroke="none" 
	d="
M300.592773,318.077209 
	C303.466187,317.757782 305.937775,317.467529 308.543182,318.241699 
	C308.760681,323.654724 304.985107,320.671265 302.873383,320.904755 
	C301.845093,322.454315 301.827881,324.044769 301.918060,325.514069 
	C303.483521,327.001373 305.416687,324.934021 307.069336,326.867859 
	C307.459869,330.102753 298.578339,329.431274 303.145508,334.793457 
	C304.946075,335.565216 306.955597,333.874420 308.968506,335.029327 
	C309.696350,336.725281 309.213409,337.791565 307.228668,338.039978 
	C306.909149,338.079987 306.572449,337.953644 306.242371,337.942444 
	C298.428284,337.676025 298.475433,337.677826 298.621918,329.674316 
	C298.664185,327.363983 298.464630,325.032104 298.164581,322.737732 
	C297.902740,320.735107 298.064545,319.089447 300.592773,318.077209 
z"/>
<path fill="#000000" opacity="1.000000" stroke="none" 
	d="
M211.963562,319.957336 
	C211.775986,323.751160 214.381378,324.940582 217.350403,326.049927 
	C219.789490,326.961304 222.644226,327.823547 222.719482,331.189911 
	C222.795059,334.571045 220.219391,336.017700 217.694168,337.382263 
	C214.772781,338.960876 212.609360,337.117676 210.450439,335.612305 
	C209.517029,334.961426 208.528076,333.984222 209.462143,332.706116 
	C210.269547,331.601318 211.452789,331.682404 212.598343,332.298553 
	C212.744583,332.377197 212.876404,332.501862 213.031311,332.542297 
	C215.150436,333.095825 217.825424,336.612030 219.221664,333.255371 
	C220.370117,330.494354 216.274323,329.904785 214.199127,328.901123 
	C208.422394,326.107117 207.914886,324.812408 211.679169,320.155090 
	C211.986328,319.986938 211.963562,319.957336 211.963562,319.957336 
z"/>
<path fill="#000000" opacity="1.000000" stroke="none" 
	d="
M185.670517,325.505035 
	C185.530426,323.809418 185.967621,322.410248 184.706482,321.105713 
	C183.464554,321.105713 182.033127,321.105713 180.540649,321.105713 
	C181.564606,317.460388 186.552719,316.587952 194.396118,318.506897 
	C194.357254,318.979584 194.429596,319.843109 194.261505,319.892792 
	C186.966003,322.048126 189.657913,328.033844 189.305649,332.807220 
	C189.137329,335.087738 189.586868,337.683563 185.672180,337.297913 
	C185.672180,333.441040 185.672180,329.680420 185.670517,325.505035 
z"/>
<path fill="#000000" opacity="1.000000" stroke="none" 
	d="
M285.824402,318.274475 
	C287.913086,321.065125 286.186951,323.811157 286.252930,326.538971 
	C286.442780,334.388855 286.273468,334.392944 293.698486,335.138306 
	C294.599609,337.015869 293.743347,337.964264 291.905121,338.063873 
	C289.765594,338.179749 287.612457,338.033813 285.465088,338.017975 
	C283.865356,338.006134 282.934937,337.193359 282.916168,335.625031 
	C282.856812,330.668762 282.852081,325.711304 282.888275,320.754761 
	C282.899902,319.164520 284.003326,318.469208 285.824402,318.274475 
z"/>
<path fill="#000000" opacity="1.000000" stroke="none" 
	d="
M230.518463,318.419037 
	C233.664230,324.142181 231.730606,330.195160 231.789154,336.123688 
	C231.801163,337.340210 230.154831,337.526154 228.349548,337.079193 
	C228.349548,331.503387 228.315155,325.783630 228.385422,320.065186 
	C228.396393,319.173462 229.307266,318.762360 230.518463,318.419037 
z"/>
<path fill="#000000" opacity="1.000000" stroke="none" 
	d="
M172.790298,335.891602 
	C172.722244,331.171173 172.715057,326.842316 172.706802,322.513458 
	C172.702866,320.452728 172.758682,318.434692 176.315704,318.202484 
	C176.315704,324.016693 176.503906,329.735016 176.221542,335.429962 
	C176.111115,337.656799 174.521591,338.106903 172.790298,335.891602 
z"/>
<path fill="#000000" opacity="1.000000" stroke="none" 
	d="
M211.995789,320.002319 
	C214.154648,316.980988 216.690033,317.426392 219.314819,319.267822 
	C220.266785,319.935730 221.290741,320.799774 220.519440,322.121826 
	C219.825562,323.311157 218.660812,323.360870 217.483139,322.741486 
	C215.872223,321.894135 214.267807,321.034424 212.312088,320.068665 
	C211.963562,319.957336 211.986328,319.986938 211.995789,320.002319 
z"/>
<path fill="#000000" opacity="1.000000" stroke="none" 
	d="
M214.078308,204.108582 
	C207.880325,207.249741 201.481339,206.939072 195.759277,205.131149 
	C188.074432,202.703064 191.520844,195.383286 191.114578,190.012054 
	C190.812500,186.018250 192.406479,182.936127 197.196304,182.490555 
	C201.354675,182.103714 205.494049,181.910355 209.643448,182.257553 
	C212.521698,182.498398 215.041672,183.807144 215.475616,186.815811 
	C216.297516,192.514206 217.421967,198.330246 214.078308,204.108582 
z"/>
</svg>